<mxfile host="drawio-plugin" modified="2022-11-24T22:41:26.730Z" agent="5.0 (Windows NT 6.2; Win64; x64) AppleWebKit/537.36 (KHTML, like Gecko) Chrome/98.0.4758.102 Safari/537.36" etag="taIqzLMXABiYaSm6VX62" version="15.5.4" type="embed" pages="5"><diagram id="C5RBs43oDa-KdzZeNtuy" name="Page-1"><mxGraphModel dx="-2489" dy="566" grid="1" gridSize="10" guides="1" tooltips="1" connect="1" arrows="1" fold="1" page="1" pageScale="1" pageWidth="3300" pageHeight="2339" background="none" math="0" shadow="0"><root><mxCell id="WIyWlLk6GJQsqaUBKTNV-0"/><mxCell id="WIyWlLk6GJQsqaUBKTNV-1" parent="WIyWlLk6GJQsqaUBKTNV-0"/><mxCell id="zkfFHV4jXpPFQw0GAbJ--17" value="Game" style="swimlane;fontStyle=0;align=center;verticalAlign=top;childLayout=stackLayout;horizontal=1;startSize=26;horizontalStack=0;resizeParent=1;resizeLast=0;collapsible=1;marginBottom=0;rounded=0;shadow=0;strokeWidth=1;" parent="WIyWlLk6GJQsqaUBKTNV-1" vertex="1"><mxGeometry x="6330" y="836" width="160" height="216" as="geometry"><mxRectangle x="560" y="160" width="160" height="26" as="alternateBounds"/></mxGeometry></mxCell><mxCell id="zkfFHV4jXpPFQw0GAbJ--18" value="Лаборатории(игроки)" style="text;align=center;verticalAlign=top;spacingLeft=4;spacingRight=4;overflow=hidden;rotatable=0;points=[[0,0.5],[1,0.5]];portConstraint=eastwest;" parent="zkfFHV4jXpPFQw0GAbJ--17" vertex="1"><mxGeometry y="26" width="160" height="26" as="geometry"/></mxCell><mxCell id="U8ynD6HXEm-DrtowHlpf-6" value="События" style="text;align=center;verticalAlign=top;spacingLeft=4;spacingRight=4;overflow=hidden;rotatable=0;points=[[0,0.5],[1,0.5]];portConstraint=eastwest;rounded=0;shadow=0;html=0;" parent="zkfFHV4jXpPFQw0GAbJ--17" vertex="1"><mxGeometry y="52" width="160" height="26" as="geometry"/></mxCell><mxCell id="zkfFHV4jXpPFQw0GAbJ--20" value="Помещения(огр.кол-во)" style="text;align=center;verticalAlign=top;spacingLeft=4;spacingRight=4;overflow=hidden;rotatable=0;points=[[0,0.5],[1,0.5]];portConstraint=eastwest;rounded=0;shadow=0;html=0;" parent="zkfFHV4jXpPFQw0GAbJ--17" vertex="1"><mxGeometry y="78" width="160" height="26" as="geometry"/></mxCell><mxCell id="zkfFHV4jXpPFQw0GAbJ--22" value="Сервисы(огр кол-во)&#10;" style="text;align=center;verticalAlign=top;spacingLeft=4;spacingRight=4;overflow=hidden;rotatable=0;points=[[0,0.5],[1,0.5]];portConstraint=eastwest;rounded=0;shadow=0;html=0;" parent="zkfFHV4jXpPFQw0GAbJ--17" vertex="1"><mxGeometry y="104" width="160" height="26" as="geometry"/></mxCell><mxCell id="zkfFHV4jXpPFQw0GAbJ--21" value="Оборудование(огр кол-во)" style="text;align=center;verticalAlign=top;spacingLeft=4;spacingRight=4;overflow=hidden;rotatable=0;points=[[0,0.5],[1,0.5]];portConstraint=eastwest;rounded=0;shadow=0;html=0;" parent="zkfFHV4jXpPFQw0GAbJ--17" vertex="1"><mxGeometry y="130" width="160" height="26" as="geometry"/></mxCell><mxCell id="U8ynD6HXEm-DrtowHlpf-4" value="Пероснал(огр кол-во)" style="text;align=center;verticalAlign=top;spacingLeft=4;spacingRight=4;overflow=hidden;rotatable=0;points=[[0,0.5],[1,0.5]];portConstraint=eastwest;rounded=0;shadow=0;html=0;" parent="zkfFHV4jXpPFQw0GAbJ--17" vertex="1"><mxGeometry y="156" width="160" height="26" as="geometry"/></mxCell><mxCell id="0" value="Дней прошло" style="text;strokeColor=none;fillColor=none;align=center;verticalAlign=middle;spacingLeft=4;spacingRight=4;overflow=hidden;points=[[0,0.5],[1,0.5]];portConstraint=eastwest;rotatable=0;" parent="zkfFHV4jXpPFQw0GAbJ--17" vertex="1"><mxGeometry y="182" width="160" height="30" as="geometry"/></mxCell><mxCell id="U8ynD6HXEm-DrtowHlpf-7" value="Лаборатория" style="swimlane;fontStyle=0;childLayout=stackLayout;horizontal=1;startSize=30;horizontalStack=0;resizeParent=1;resizeParentMax=0;resizeLast=0;collapsible=1;marginBottom=0;align=center;" parent="WIyWlLk6GJQsqaUBKTNV-1" vertex="1"><mxGeometry x="6009.96" y="520" width="140" height="270" as="geometry"/></mxCell><mxCell id="U8ynD6HXEm-DrtowHlpf-18" value="Деньги" style="text;strokeColor=none;fillColor=none;align=center;verticalAlign=middle;spacingLeft=4;spacingRight=4;overflow=hidden;points=[[0,0.5],[1,0.5]];portConstraint=eastwest;rotatable=0;" parent="U8ynD6HXEm-DrtowHlpf-7" vertex="1"><mxGeometry y="30" width="140" height="30" as="geometry"/></mxCell><mxCell id="U8ynD6HXEm-DrtowHlpf-17" value="Помещения" style="text;strokeColor=none;fillColor=none;align=center;verticalAlign=middle;spacingLeft=4;spacingRight=4;overflow=hidden;points=[[0,0.5],[1,0.5]];portConstraint=eastwest;rotatable=0;" parent="U8ynD6HXEm-DrtowHlpf-7" vertex="1"><mxGeometry y="60" width="140" height="30" as="geometry"/></mxCell><mxCell id="U8ynD6HXEm-DrtowHlpf-12" value="Репутация(Итоговая)" style="text;strokeColor=none;fillColor=none;align=center;verticalAlign=middle;spacingLeft=4;spacingRight=4;overflow=hidden;points=[[0,0.5],[1,0.5]];portConstraint=eastwest;rotatable=0;" parent="U8ynD6HXEm-DrtowHlpf-7" vertex="1"><mxGeometry y="90" width="140" height="30" as="geometry"/></mxCell><mxCell id="cIuGYjMXnb325uZlWKxq-1" style="edgeStyle=orthogonalEdgeStyle;rounded=0;orthogonalLoop=1;jettySize=auto;html=1;exitX=0;exitY=0.5;exitDx=0;exitDy=0;entryX=0;entryY=0.5;entryDx=0;entryDy=0;align=center;" parent="U8ynD6HXEm-DrtowHlpf-7" source="U8ynD6HXEm-DrtowHlpf-13" target="U8ynD6HXEm-DrtowHlpf-12" edge="1"><mxGeometry relative="1" as="geometry"><Array as="points"><mxPoint x="-30" y="105"/><mxPoint x="-30" y="75"/></Array></mxGeometry></mxCell><mxCell id="U8ynD6HXEm-DrtowHlpf-15" value="Сервисы(общие)" style="text;strokeColor=none;fillColor=none;align=center;verticalAlign=middle;spacingLeft=4;spacingRight=4;overflow=hidden;points=[[0,0.5],[1,0.5]];portConstraint=eastwest;rotatable=0;" parent="U8ynD6HXEm-DrtowHlpf-7" vertex="1"><mxGeometry y="120" width="140" height="30" as="geometry"/></mxCell><mxCell id="U8ynD6HXEm-DrtowHlpf-13" value="Реклама" style="text;strokeColor=none;fillColor=none;align=center;verticalAlign=middle;spacingLeft=4;spacingRight=4;overflow=hidden;points=[[0,0.5],[1,0.5]];portConstraint=eastwest;rotatable=0;" parent="U8ynD6HXEm-DrtowHlpf-7" vertex="1"><mxGeometry y="150" width="140" height="30" as="geometry"/></mxCell><mxCell id="U8ynD6HXEm-DrtowHlpf-16" value="Активные события" style="text;strokeColor=none;fillColor=none;align=center;verticalAlign=middle;spacingLeft=4;spacingRight=4;overflow=hidden;points=[[0,0.5],[1,0.5]];portConstraint=eastwest;rotatable=0;" parent="U8ynD6HXEm-DrtowHlpf-7" vertex="1"><mxGeometry y="180" width="140" height="30" as="geometry"/></mxCell><mxCell id="U8ynD6HXEm-DrtowHlpf-19" value="Заказы" style="text;strokeColor=none;fillColor=none;align=center;verticalAlign=middle;spacingLeft=4;spacingRight=4;overflow=hidden;points=[[0,0.5],[1,0.5]];portConstraint=eastwest;rotatable=0;" parent="U8ynD6HXEm-DrtowHlpf-7" vertex="1"><mxGeometry y="210" width="140" height="30" as="geometry"/></mxCell><mxCell id="cIuGYjMXnb325uZlWKxq-8" value="Кредит" style="text;strokeColor=none;fillColor=none;align=center;verticalAlign=middle;spacingLeft=4;spacingRight=4;overflow=hidden;points=[[0,0.5],[1,0.5]];portConstraint=eastwest;rotatable=0;" parent="U8ynD6HXEm-DrtowHlpf-7" vertex="1"><mxGeometry y="240" width="140" height="30" as="geometry"/></mxCell><mxCell id="U8ynD6HXEm-DrtowHlpf-11" style="edgeStyle=orthogonalEdgeStyle;rounded=0;orthogonalLoop=1;jettySize=auto;html=1;exitX=0;exitY=0.5;exitDx=0;exitDy=0;entryX=1;entryY=0.5;entryDx=0;entryDy=0;align=center;" parent="WIyWlLk6GJQsqaUBKTNV-1" source="zkfFHV4jXpPFQw0GAbJ--18" target="U8ynD6HXEm-DrtowHlpf-17" edge="1"><mxGeometry relative="1" as="geometry"/></mxCell><mxCell id="U8ynD6HXEm-DrtowHlpf-20" value="Помещение" style="swimlane;fontStyle=0;childLayout=stackLayout;horizontal=1;startSize=30;horizontalStack=0;resizeParent=1;resizeParentMax=0;resizeLast=0;collapsible=1;marginBottom=0;align=center;" parent="WIyWlLk6GJQsqaUBKTNV-1" vertex="1"><mxGeometry x="5729.96" y="480" width="230" height="330" as="geometry"/></mxCell><mxCell id="U8ynD6HXEm-DrtowHlpf-21" value="Оборудование/отсутствие" style="text;strokeColor=none;fillColor=none;align=center;verticalAlign=middle;spacingLeft=4;spacingRight=4;overflow=hidden;points=[[0,0.5],[1,0.5]];portConstraint=eastwest;rotatable=0;" parent="U8ynD6HXEm-DrtowHlpf-20" vertex="1"><mxGeometry y="30" width="230" height="30" as="geometry"/></mxCell><mxCell id="U8ynD6HXEm-DrtowHlpf-22" value="Реальный персонал(врачи/медбратья)" style="text;strokeColor=none;fillColor=none;align=center;verticalAlign=middle;spacingLeft=4;spacingRight=4;overflow=hidden;points=[[0,0.5],[1,0.5]];portConstraint=eastwest;rotatable=0;" parent="U8ynD6HXEm-DrtowHlpf-20" vertex="1"><mxGeometry y="60" width="230" height="30" as="geometry"/></mxCell><mxCell id="U8ynD6HXEm-DrtowHlpf-26" value="Репутация(итоговая)" style="text;strokeColor=none;fillColor=none;align=center;verticalAlign=middle;spacingLeft=4;spacingRight=4;overflow=hidden;points=[[0,0.5],[1,0.5]];portConstraint=eastwest;rotatable=0;" parent="U8ynD6HXEm-DrtowHlpf-20" vertex="1"><mxGeometry y="90" width="230" height="30" as="geometry"/></mxCell><mxCell id="U8ynD6HXEm-DrtowHlpf-25" value="Расходы(Итоговые)" style="text;strokeColor=none;fillColor=none;align=center;verticalAlign=middle;spacingLeft=4;spacingRight=4;overflow=hidden;points=[[0,0.5],[1,0.5]];portConstraint=eastwest;rotatable=0;" parent="U8ynD6HXEm-DrtowHlpf-20" vertex="1"><mxGeometry y="120" width="230" height="30" as="geometry"/></mxCell><mxCell id="U8ynD6HXEm-DrtowHlpf-43" value="Возможна ли работа" style="text;strokeColor=none;fillColor=none;align=center;verticalAlign=middle;spacingLeft=4;spacingRight=4;overflow=hidden;points=[[0,0.5],[1,0.5]];portConstraint=eastwest;rotatable=0;" parent="U8ynD6HXEm-DrtowHlpf-20" vertex="1"><mxGeometry y="150" width="230" height="30" as="geometry"/></mxCell><mxCell id="U8ynD6HXEm-DrtowHlpf-48" value="Фактические заказы" style="text;strokeColor=none;fillColor=none;align=center;verticalAlign=middle;spacingLeft=4;spacingRight=4;overflow=hidden;points=[[0,0.5],[1,0.5]];portConstraint=eastwest;rotatable=0;" parent="U8ynD6HXEm-DrtowHlpf-20" vertex="1"><mxGeometry y="180" width="230" height="30" as="geometry"/></mxCell><mxCell id="U8ynD6HXEm-DrtowHlpf-66" style="edgeStyle=orthogonalEdgeStyle;rounded=0;orthogonalLoop=1;jettySize=auto;html=1;entryX=0;entryY=0.5;entryDx=0;entryDy=0;align=center;" parent="U8ynD6HXEm-DrtowHlpf-20" source="U8ynD6HXEm-DrtowHlpf-65" target="U8ynD6HXEm-DrtowHlpf-26" edge="1"><mxGeometry relative="1" as="geometry"/></mxCell><mxCell id="U8ynD6HXEm-DrtowHlpf-57" style="edgeStyle=orthogonalEdgeStyle;rounded=0;orthogonalLoop=1;jettySize=auto;html=1;exitX=0;exitY=0.5;exitDx=0;exitDy=0;entryX=0;entryY=0.5;entryDx=0;entryDy=0;align=center;" parent="U8ynD6HXEm-DrtowHlpf-20" source="U8ynD6HXEm-DrtowHlpf-22" target="U8ynD6HXEm-DrtowHlpf-25" edge="1"><mxGeometry relative="1" as="geometry"><mxPoint y="170" as="targetPoint"/><Array as="points"><mxPoint x="-30" y="105"/><mxPoint x="-30" y="165"/></Array></mxGeometry></mxCell><mxCell id="U8ynD6HXEm-DrtowHlpf-69" style="edgeStyle=orthogonalEdgeStyle;rounded=0;orthogonalLoop=1;jettySize=auto;html=1;entryX=0;entryY=0.5;entryDx=0;entryDy=0;align=center;" parent="U8ynD6HXEm-DrtowHlpf-20" source="U8ynD6HXEm-DrtowHlpf-68" target="U8ynD6HXEm-DrtowHlpf-25" edge="1"><mxGeometry relative="1" as="geometry"><Array as="points"><mxPoint x="115" y="380"/><mxPoint x="-50" y="380"/><mxPoint x="-50" y="135"/></Array></mxGeometry></mxCell><mxCell id="U8ynD6HXEm-DrtowHlpf-23" value="Цена" style="text;strokeColor=none;fillColor=none;align=center;verticalAlign=middle;spacingLeft=4;spacingRight=4;overflow=hidden;points=[[0,0.5],[1,0.5]];portConstraint=eastwest;rotatable=0;" parent="U8ynD6HXEm-DrtowHlpf-20" vertex="1"><mxGeometry y="210" width="230" height="30" as="geometry"/></mxCell><mxCell id="U8ynD6HXEm-DrtowHlpf-32" value="Макс персонал(врачи/медбратья)" style="text;strokeColor=none;fillColor=none;align=center;verticalAlign=middle;spacingLeft=4;spacingRight=4;overflow=hidden;points=[[0,0.5],[1,0.5]];portConstraint=eastwest;rotatable=0;" parent="U8ynD6HXEm-DrtowHlpf-20" vertex="1"><mxGeometry y="240" width="230" height="30" as="geometry"/></mxCell><mxCell id="U8ynD6HXEm-DrtowHlpf-65" value="Репутация(базовая)" style="text;strokeColor=none;fillColor=none;align=center;verticalAlign=middle;spacingLeft=4;spacingRight=4;overflow=hidden;points=[[0,0.5],[1,0.5]];portConstraint=eastwest;rotatable=0;" parent="U8ynD6HXEm-DrtowHlpf-20" vertex="1"><mxGeometry y="270" width="230" height="30" as="geometry"/></mxCell><mxCell id="U8ynD6HXEm-DrtowHlpf-68" value="Расходы(Базовые)" style="text;strokeColor=none;fillColor=none;align=center;verticalAlign=middle;spacingLeft=4;spacingRight=4;overflow=hidden;points=[[0,0.5],[1,0.5]];portConstraint=eastwest;rotatable=0;" parent="U8ynD6HXEm-DrtowHlpf-20" vertex="1"><mxGeometry y="300" width="230" height="30" as="geometry"/></mxCell><mxCell id="U8ynD6HXEm-DrtowHlpf-24" style="edgeStyle=orthogonalEdgeStyle;rounded=0;orthogonalLoop=1;jettySize=auto;html=1;exitX=0;exitY=0.5;exitDx=0;exitDy=0;entryX=1;entryY=0.25;entryDx=0;entryDy=0;align=center;" parent="WIyWlLk6GJQsqaUBKTNV-1" source="U8ynD6HXEm-DrtowHlpf-17" target="U8ynD6HXEm-DrtowHlpf-20" edge="1"><mxGeometry relative="1" as="geometry"/></mxCell><mxCell id="U8ynD6HXEm-DrtowHlpf-33" value="Оборудование" style="swimlane;fontStyle=0;childLayout=stackLayout;horizontal=1;startSize=30;horizontalStack=0;resizeParent=1;resizeParentMax=0;resizeLast=0;collapsible=1;marginBottom=0;align=center;" parent="WIyWlLk6GJQsqaUBKTNV-1" vertex="1"><mxGeometry x="5429.96" y="130" width="250" height="420" as="geometry"/></mxCell><mxCell id="U8ynD6HXEm-DrtowHlpf-34" value="Имя" style="text;strokeColor=none;fillColor=none;align=center;verticalAlign=middle;spacingLeft=4;spacingRight=4;overflow=hidden;points=[[0,0.5],[1,0.5]];portConstraint=eastwest;rotatable=0;" parent="U8ynD6HXEm-DrtowHlpf-33" vertex="1"><mxGeometry y="30" width="250" height="30" as="geometry"/></mxCell><mxCell id="U8ynD6HXEm-DrtowHlpf-35" value="Цена" style="text;strokeColor=none;fillColor=none;align=center;verticalAlign=middle;spacingLeft=4;spacingRight=4;overflow=hidden;points=[[0,0.5],[1,0.5]];portConstraint=eastwest;rotatable=0;" parent="U8ynD6HXEm-DrtowHlpf-33" vertex="1"><mxGeometry y="60" width="250" height="30" as="geometry"/></mxCell><mxCell id="U8ynD6HXEm-DrtowHlpf-54" value="Сервисы" style="text;strokeColor=none;fillColor=none;align=center;verticalAlign=middle;spacingLeft=4;spacingRight=4;overflow=hidden;points=[[0,0.5],[1,0.5]];portConstraint=eastwest;rotatable=0;" parent="U8ynD6HXEm-DrtowHlpf-33" vertex="1"><mxGeometry y="90" width="250" height="30" as="geometry"/></mxCell><mxCell id="U8ynD6HXEm-DrtowHlpf-50" value="Этап(один из 3) и/или цвет" style="text;strokeColor=none;fillColor=none;align=center;verticalAlign=middle;spacingLeft=4;spacingRight=4;overflow=hidden;points=[[0,0.5],[1,0.5]];portConstraint=eastwest;rotatable=0;" parent="U8ynD6HXEm-DrtowHlpf-33" vertex="1"><mxGeometry y="120" width="250" height="30" as="geometry"/></mxCell><mxCell id="U8ynD6HXEm-DrtowHlpf-36" value="Расходы" style="text;strokeColor=none;fillColor=none;align=center;verticalAlign=middle;spacingLeft=4;spacingRight=4;overflow=hidden;points=[[0,0.5],[1,0.5]];portConstraint=eastwest;rotatable=0;" parent="U8ynD6HXEm-DrtowHlpf-33" vertex="1"><mxGeometry y="150" width="250" height="30" as="geometry"/></mxCell><mxCell id="U8ynD6HXEm-DrtowHlpf-45" value="Мощность" style="text;strokeColor=none;fillColor=none;align=center;verticalAlign=middle;spacingLeft=4;spacingRight=4;overflow=hidden;points=[[0,0.5],[1,0.5]];portConstraint=eastwest;rotatable=0;" parent="U8ynD6HXEm-DrtowHlpf-33" vertex="1"><mxGeometry y="180" width="250" height="30" as="geometry"/></mxCell><mxCell id="U8ynD6HXEm-DrtowHlpf-37" value="Репутация" style="text;strokeColor=none;fillColor=none;align=center;verticalAlign=middle;spacingLeft=4;spacingRight=4;overflow=hidden;points=[[0,0.5],[1,0.5]];portConstraint=eastwest;rotatable=0;" parent="U8ynD6HXEm-DrtowHlpf-33" vertex="1"><mxGeometry y="210" width="250" height="30" as="geometry"/></mxCell><mxCell id="U8ynD6HXEm-DrtowHlpf-38" value="Стоимость ремонта" style="text;strokeColor=none;fillColor=none;align=center;verticalAlign=middle;spacingLeft=4;spacingRight=4;overflow=hidden;points=[[0,0.5],[1,0.5]];portConstraint=eastwest;rotatable=0;" parent="U8ynD6HXEm-DrtowHlpf-33" vertex="1"><mxGeometry y="240" width="250" height="30" as="geometry"/></mxCell><mxCell id="U8ynD6HXEm-DrtowHlpf-39" value="Стоимость реагентов" style="text;strokeColor=none;fillColor=none;align=center;verticalAlign=middle;spacingLeft=4;spacingRight=4;overflow=hidden;points=[[0,0.5],[1,0.5]];portConstraint=eastwest;rotatable=0;" parent="U8ynD6HXEm-DrtowHlpf-33" vertex="1"><mxGeometry y="270" width="250" height="30" as="geometry"/></mxCell><mxCell id="U8ynD6HXEm-DrtowHlpf-40" value="Необходимый персонал(врачи/медбратья)" style="text;strokeColor=none;fillColor=none;align=center;verticalAlign=middle;spacingLeft=4;spacingRight=4;overflow=hidden;points=[[0,0.5],[1,0.5]];portConstraint=eastwest;rotatable=0;" parent="U8ynD6HXEm-DrtowHlpf-33" vertex="1"><mxGeometry y="300" width="250" height="30" as="geometry"/></mxCell><mxCell id="U8ynD6HXEm-DrtowHlpf-44" value="Возможность работы" style="text;strokeColor=none;fillColor=none;align=center;verticalAlign=middle;spacingLeft=4;spacingRight=4;overflow=hidden;points=[[0,0.5],[1,0.5]];portConstraint=eastwest;rotatable=0;" parent="U8ynD6HXEm-DrtowHlpf-33" vertex="1"><mxGeometry y="330" width="250" height="30" as="geometry"/></mxCell><mxCell id="U8ynD6HXEm-DrtowHlpf-61" style="edgeStyle=orthogonalEdgeStyle;rounded=0;orthogonalLoop=1;jettySize=auto;html=1;exitX=0;exitY=0.5;exitDx=0;exitDy=0;entryX=0;entryY=0.5;entryDx=0;entryDy=0;align=center;" parent="U8ynD6HXEm-DrtowHlpf-33" source="U8ynD6HXEm-DrtowHlpf-60" target="U8ynD6HXEm-DrtowHlpf-44" edge="1"><mxGeometry relative="1" as="geometry"><Array as="points"><mxPoint x="-10" y="375"/><mxPoint x="-10" y="345"/></Array></mxGeometry></mxCell><mxCell id="U8ynD6HXEm-DrtowHlpf-60" value="Поломаность" style="text;strokeColor=none;fillColor=none;align=center;verticalAlign=middle;spacingLeft=4;spacingRight=4;overflow=hidden;points=[[0,0.5],[1,0.5]];portConstraint=eastwest;rotatable=0;" parent="U8ynD6HXEm-DrtowHlpf-33" vertex="1"><mxGeometry y="360" width="250" height="30" as="geometry"/></mxCell><mxCell id="U8ynD6HXEm-DrtowHlpf-46" value="Не в залоге и/или у кого" style="text;strokeColor=none;fillColor=none;align=center;verticalAlign=middle;spacingLeft=4;spacingRight=4;overflow=hidden;points=[[0,0.5],[1,0.5]];portConstraint=eastwest;rotatable=0;" parent="U8ynD6HXEm-DrtowHlpf-33" vertex="1"><mxGeometry y="390" width="250" height="30" as="geometry"/></mxCell><mxCell id="U8ynD6HXEm-DrtowHlpf-41" style="edgeStyle=orthogonalEdgeStyle;rounded=0;orthogonalLoop=1;jettySize=auto;html=1;entryX=1;entryY=0.25;entryDx=0;entryDy=0;align=center;" parent="WIyWlLk6GJQsqaUBKTNV-1" target="U8ynD6HXEm-DrtowHlpf-33" edge="1"><mxGeometry relative="1" as="geometry"><mxPoint x="5729.96" y="530" as="sourcePoint"/><mxPoint x="5649.96" y="480" as="targetPoint"/><Array as="points"><mxPoint x="5719.96" y="530"/><mxPoint x="5719.96" y="307"/></Array></mxGeometry></mxCell><mxCell id="U8ynD6HXEm-DrtowHlpf-55" style="edgeStyle=orthogonalEdgeStyle;rounded=0;orthogonalLoop=1;jettySize=auto;html=1;exitX=0;exitY=0.5;exitDx=0;exitDy=0;entryX=0;entryY=0.5;entryDx=0;entryDy=0;align=center;" parent="WIyWlLk6GJQsqaUBKTNV-1" source="U8ynD6HXEm-DrtowHlpf-39" target="U8ynD6HXEm-DrtowHlpf-25" edge="1"><mxGeometry relative="1" as="geometry"/></mxCell><mxCell id="U8ynD6HXEm-DrtowHlpf-56" style="edgeStyle=orthogonalEdgeStyle;rounded=0;orthogonalLoop=1;jettySize=auto;html=1;exitX=0;exitY=0.5;exitDx=0;exitDy=0;entryX=0;entryY=0.5;entryDx=0;entryDy=0;align=center;" parent="WIyWlLk6GJQsqaUBKTNV-1" source="U8ynD6HXEm-DrtowHlpf-38" target="U8ynD6HXEm-DrtowHlpf-25" edge="1"><mxGeometry relative="1" as="geometry"><Array as="points"><mxPoint x="5379.96" y="465"/><mxPoint x="5379.96" y="640"/><mxPoint x="5689.96" y="640"/><mxPoint x="5689.96" y="615"/></Array></mxGeometry></mxCell><mxCell id="U8ynD6HXEm-DrtowHlpf-59" style="edgeStyle=orthogonalEdgeStyle;rounded=0;orthogonalLoop=1;jettySize=auto;html=1;exitX=0;exitY=0.5;exitDx=0;exitDy=0;entryX=1;entryY=0.5;entryDx=0;entryDy=0;align=center;" parent="WIyWlLk6GJQsqaUBKTNV-1" source="U8ynD6HXEm-DrtowHlpf-19" target="U8ynD6HXEm-DrtowHlpf-48" edge="1"><mxGeometry relative="1" as="geometry"/></mxCell><mxCell id="U8ynD6HXEm-DrtowHlpf-62" style="edgeStyle=orthogonalEdgeStyle;rounded=0;orthogonalLoop=1;jettySize=auto;html=1;exitX=0;exitY=0.5;exitDx=0;exitDy=0;align=center;" parent="WIyWlLk6GJQsqaUBKTNV-1" source="U8ynD6HXEm-DrtowHlpf-44" edge="1"><mxGeometry relative="1" as="geometry"><mxPoint x="5599.96" y="735" as="sourcePoint"/><mxPoint x="5729.96" y="650" as="targetPoint"/><Array as="points"><mxPoint x="5419.96" y="475"/><mxPoint x="5419.96" y="555"/><mxPoint x="5359.96" y="555"/><mxPoint x="5359.96" y="650"/></Array></mxGeometry></mxCell><mxCell id="U8ynD6HXEm-DrtowHlpf-64" style="edgeStyle=orthogonalEdgeStyle;rounded=0;orthogonalLoop=1;jettySize=auto;html=1;entryX=0;entryY=-0.333;entryDx=0;entryDy=0;entryPerimeter=0;align=center;" parent="WIyWlLk6GJQsqaUBKTNV-1" source="U8ynD6HXEm-DrtowHlpf-26" target="U8ynD6HXEm-DrtowHlpf-13" edge="1"><mxGeometry relative="1" as="geometry"><Array as="points"><mxPoint x="5984.96" y="585"/><mxPoint x="5984.96" y="600"/></Array></mxGeometry></mxCell><mxCell id="cIuGYjMXnb325uZlWKxq-2" value="Сервис" style="swimlane;fontStyle=0;childLayout=stackLayout;horizontal=1;startSize=30;horizontalStack=0;resizeParent=1;resizeParentMax=0;resizeLast=0;collapsible=1;marginBottom=0;align=center;" parent="WIyWlLk6GJQsqaUBKTNV-1" vertex="1"><mxGeometry x="5829.96" y="980" width="200" height="180" as="geometry"/></mxCell><mxCell id="cIuGYjMXnb325uZlWKxq-12" value="Имя" style="text;strokeColor=none;fillColor=none;align=center;verticalAlign=middle;spacingLeft=4;spacingRight=4;overflow=hidden;points=[[0,0.5],[1,0.5]];portConstraint=eastwest;rotatable=0;" parent="cIuGYjMXnb325uZlWKxq-2" vertex="1"><mxGeometry y="30" width="200" height="30" as="geometry"/></mxCell><mxCell id="cIuGYjMXnb325uZlWKxq-3" value="Цена(расчётная или фикс)" style="text;strokeColor=none;fillColor=none;align=center;verticalAlign=middle;spacingLeft=4;spacingRight=4;overflow=hidden;points=[[0,0.5],[1,0.5]];portConstraint=eastwest;rotatable=0;" parent="cIuGYjMXnb325uZlWKxq-2" vertex="1"><mxGeometry y="60" width="200" height="30" as="geometry"/></mxCell><mxCell id="cIuGYjMXnb325uZlWKxq-4" value="Расходы" style="text;strokeColor=none;fillColor=none;align=center;verticalAlign=middle;spacingLeft=4;spacingRight=4;overflow=hidden;points=[[0,0.5],[1,0.5]];portConstraint=eastwest;rotatable=0;" parent="cIuGYjMXnb325uZlWKxq-2" vertex="1"><mxGeometry y="90" width="200" height="30" as="geometry"/></mxCell><mxCell id="cIuGYjMXnb325uZlWKxq-5" value="Репутация" style="text;strokeColor=none;fillColor=none;align=center;verticalAlign=middle;spacingLeft=4;spacingRight=4;overflow=hidden;points=[[0,0.5],[1,0.5]];portConstraint=eastwest;rotatable=0;" parent="cIuGYjMXnb325uZlWKxq-2" vertex="1"><mxGeometry y="120" width="200" height="30" as="geometry"/></mxCell><mxCell id="cIuGYjMXnb325uZlWKxq-9" value="Одноразовый/постоянный" style="text;strokeColor=none;fillColor=none;align=center;verticalAlign=middle;spacingLeft=4;spacingRight=4;overflow=hidden;points=[[0,0.5],[1,0.5]];portConstraint=eastwest;rotatable=0;" parent="cIuGYjMXnb325uZlWKxq-2" vertex="1"><mxGeometry y="150" width="200" height="30" as="geometry"/></mxCell><mxCell id="cIuGYjMXnb325uZlWKxq-10" style="edgeStyle=orthogonalEdgeStyle;rounded=0;orthogonalLoop=1;jettySize=auto;html=1;exitX=0;exitY=0.5;exitDx=0;exitDy=0;entryX=0.75;entryY=0;entryDx=0;entryDy=0;align=center;" parent="WIyWlLk6GJQsqaUBKTNV-1" source="U8ynD6HXEm-DrtowHlpf-15" target="cIuGYjMXnb325uZlWKxq-2" edge="1"><mxGeometry relative="1" as="geometry"/></mxCell><mxCell id="cIuGYjMXnb325uZlWKxq-11" style="edgeStyle=orthogonalEdgeStyle;rounded=0;orthogonalLoop=1;jettySize=auto;html=1;exitX=0;exitY=0.5;exitDx=0;exitDy=0;entryX=0;entryY=0.5;entryDx=0;entryDy=0;align=center;" parent="WIyWlLk6GJQsqaUBKTNV-1" source="U8ynD6HXEm-DrtowHlpf-54" target="cIuGYjMXnb325uZlWKxq-3" edge="1"><mxGeometry relative="1" as="geometry"><Array as="points"><mxPoint x="5269.96" y="235"/><mxPoint x="5269.96" y="1055"/></Array></mxGeometry></mxCell><mxCell id="cIuGYjMXnb325uZlWKxq-14" value="Событие" style="swimlane;fontStyle=0;childLayout=stackLayout;horizontal=1;startSize=30;horizontalStack=0;resizeParent=1;resizeParentMax=0;resizeLast=0;collapsible=1;marginBottom=0;align=center;" parent="WIyWlLk6GJQsqaUBKTNV-1" vertex="1"><mxGeometry x="6049.96" y="980" width="220" height="120" as="geometry"/></mxCell><mxCell id="cIuGYjMXnb325uZlWKxq-15" value="Тип(доп. заказы/негативные/ничего)" style="text;strokeColor=none;fillColor=none;align=center;verticalAlign=middle;spacingLeft=4;spacingRight=4;overflow=hidden;points=[[0,0.5],[1,0.5]];portConstraint=eastwest;rotatable=0;" parent="cIuGYjMXnb325uZlWKxq-14" vertex="1"><mxGeometry y="30" width="220" height="30" as="geometry"/></mxCell><mxCell id="cIuGYjMXnb325uZlWKxq-19" value="Действие" style="text;strokeColor=none;fillColor=none;align=center;verticalAlign=middle;spacingLeft=4;spacingRight=4;overflow=hidden;points=[[0,0.5],[1,0.5]];portConstraint=eastwest;rotatable=0;" parent="cIuGYjMXnb325uZlWKxq-14" vertex="1"><mxGeometry y="60" width="220" height="30" as="geometry"/></mxCell><mxCell id="cIuGYjMXnb325uZlWKxq-20" value="Название" style="text;strokeColor=none;fillColor=none;align=center;verticalAlign=middle;spacingLeft=4;spacingRight=4;overflow=hidden;points=[[0,0.5],[1,0.5]];portConstraint=eastwest;rotatable=0;" parent="cIuGYjMXnb325uZlWKxq-14" vertex="1"><mxGeometry y="90" width="220" height="30" as="geometry"/></mxCell><mxCell id="cIuGYjMXnb325uZlWKxq-21" style="edgeStyle=orthogonalEdgeStyle;rounded=0;orthogonalLoop=1;jettySize=auto;html=1;exitX=1;exitY=0.5;exitDx=0;exitDy=0;entryX=0.5;entryY=0;entryDx=0;entryDy=0;align=center;" parent="WIyWlLk6GJQsqaUBKTNV-1" source="U8ynD6HXEm-DrtowHlpf-16" target="cIuGYjMXnb325uZlWKxq-14" edge="1"><mxGeometry relative="1" as="geometry"><mxPoint x="6199.96" y="684.6956521739132" as="targetPoint"/></mxGeometry></mxCell><mxCell id="cIuGYjMXnb325uZlWKxq-22" style="edgeStyle=orthogonalEdgeStyle;rounded=0;orthogonalLoop=1;jettySize=auto;html=1;entryX=0.5;entryY=0;entryDx=0;entryDy=0;align=center;" parent="WIyWlLk6GJQsqaUBKTNV-1" source="U8ynD6HXEm-DrtowHlpf-19" target="cIuGYjMXnb325uZlWKxq-23" edge="1"><mxGeometry relative="1" as="geometry"><mxPoint x="5540" y="1110" as="targetPoint"/><Array as="points"><mxPoint x="5990" y="745"/><mxPoint x="5990" y="890"/><mxPoint x="5710" y="890"/><mxPoint x="5710" y="1090"/><mxPoint x="5555" y="1090"/></Array></mxGeometry></mxCell><mxCell id="cIuGYjMXnb325uZlWKxq-23" value="Заказы" style="swimlane;fontStyle=0;childLayout=stackLayout;horizontal=1;startSize=30;horizontalStack=0;resizeParent=1;resizeParentMax=0;resizeLast=0;collapsible=1;marginBottom=0;align=center;" parent="WIyWlLk6GJQsqaUBKTNV-1" vertex="1"><mxGeometry x="5485" y="1140" width="140" height="90" as="geometry"/></mxCell><mxCell id="cIuGYjMXnb325uZlWKxq-25" value="Каждый тип да/нет" style="text;strokeColor=none;fillColor=none;align=center;verticalAlign=middle;spacingLeft=4;spacingRight=4;overflow=hidden;points=[[0,0.5],[1,0.5]];portConstraint=eastwest;rotatable=0;" parent="cIuGYjMXnb325uZlWKxq-23" vertex="1"><mxGeometry y="30" width="140" height="30" as="geometry"/></mxCell><mxCell id="cIuGYjMXnb325uZlWKxq-26" value="Item 3" style="text;strokeColor=none;fillColor=none;align=center;verticalAlign=middle;spacingLeft=4;spacingRight=4;overflow=hidden;points=[[0,0.5],[1,0.5]];portConstraint=eastwest;rotatable=0;" parent="cIuGYjMXnb325uZlWKxq-23" vertex="1"><mxGeometry y="60" width="140" height="30" as="geometry"/></mxCell></root></mxGraphModel></diagram><diagram id="CnreRg5c6TkltkpGHyzL" name="Page-2"><mxGraphModel dx="594" dy="480" grid="1" gridSize="10" guides="1" tooltips="1" connect="1" arrows="1" fold="1" page="1" pageScale="1" pageWidth="850" pageHeight="1100" math="0" shadow="0"><root><mxCell id="nU8--_0BDow5I3-QroVY-0"/><mxCell id="nU8--_0BDow5I3-QroVY-1" parent="nU8--_0BDow5I3-QroVY-0"/><mxCell id="nU8--_0BDow5I3-QroVY-5" style="edgeStyle=orthogonalEdgeStyle;rounded=0;orthogonalLoop=1;jettySize=auto;html=1;exitX=0.5;exitY=1;exitDx=0;exitDy=0;entryX=0.5;entryY=0;entryDx=0;entryDy=0;" parent="nU8--_0BDow5I3-QroVY-1" source="nU8--_0BDow5I3-QroVY-3" target="nU8--_0BDow5I3-QroVY-4" edge="1"><mxGeometry relative="1" as="geometry"/></mxCell><mxCell id="nU8--_0BDow5I3-QroVY-3" value="говорим какие типы заказов делаем" style="rounded=0;whiteSpace=wrap;html=1;" parent="nU8--_0BDow5I3-QroVY-1" vertex="1"><mxGeometry x="220" y="130" width="120" height="60" as="geometry"/></mxCell><mxCell id="nU8--_0BDow5I3-QroVY-14" style="edgeStyle=orthogonalEdgeStyle;rounded=0;orthogonalLoop=1;jettySize=auto;html=1;exitX=0.5;exitY=1;exitDx=0;exitDy=0;entryX=0.5;entryY=0;entryDx=0;entryDy=0;" parent="nU8--_0BDow5I3-QroVY-1" source="nU8--_0BDow5I3-QroVY-4" target="nU8--_0BDow5I3-QroVY-10" edge="1"><mxGeometry relative="1" as="geometry"/></mxCell><mxCell id="nU8--_0BDow5I3-QroVY-4" value="полученые заказы" style="rounded=1;whiteSpace=wrap;html=1;" parent="nU8--_0BDow5I3-QroVY-1" vertex="1"><mxGeometry x="220" y="290" width="120" height="60" as="geometry"/></mxCell><mxCell id="nU8--_0BDow5I3-QroVY-6" value="бросаем по каждому выбраному цвету кубик" style="text;html=1;strokeColor=none;fillColor=none;align=center;verticalAlign=middle;whiteSpace=wrap;rounded=0;" parent="nU8--_0BDow5I3-QroVY-1" vertex="1"><mxGeometry x="290" y="220" width="80" height="30" as="geometry"/></mxCell><mxCell id="nU8--_0BDow5I3-QroVY-10" value="Анализ " style="swimlane;fontStyle=0;childLayout=stackLayout;horizontal=1;startSize=30;horizontalStack=0;resizeParent=1;resizeParentMax=0;resizeLast=0;collapsible=1;marginBottom=0;" parent="nU8--_0BDow5I3-QroVY-1" vertex="1"><mxGeometry x="240" y="430" width="140" height="120" as="geometry"/></mxCell><mxCell id="nU8--_0BDow5I3-QroVY-11" value="Взятие" style="text;strokeColor=none;fillColor=none;align=left;verticalAlign=middle;spacingLeft=4;spacingRight=4;overflow=hidden;points=[[0,0.5],[1,0.5]];portConstraint=eastwest;rotatable=0;" parent="nU8--_0BDow5I3-QroVY-10" vertex="1"><mxGeometry y="30" width="140" height="30" as="geometry"/></mxCell><mxCell id="nU8--_0BDow5I3-QroVY-12" value="Анализ" style="text;strokeColor=none;fillColor=none;align=left;verticalAlign=middle;spacingLeft=4;spacingRight=4;overflow=hidden;points=[[0,0.5],[1,0.5]];portConstraint=eastwest;rotatable=0;" parent="nU8--_0BDow5I3-QroVY-10" vertex="1"><mxGeometry y="60" width="140" height="30" as="geometry"/></mxCell><mxCell id="nU8--_0BDow5I3-QroVY-13" value="Выдача" style="text;strokeColor=none;fillColor=none;align=left;verticalAlign=middle;spacingLeft=4;spacingRight=4;overflow=hidden;points=[[0,0.5],[1,0.5]];portConstraint=eastwest;rotatable=0;" parent="nU8--_0BDow5I3-QroVY-10" vertex="1"><mxGeometry y="90" width="140" height="30" as="geometry"/></mxCell></root></mxGraphModel></diagram><diagram id="MBJCMY0Ji1-aZ8rcavDh" name="Page-6"><mxGraphModel dx="689" dy="481" grid="1" gridSize="10" guides="1" tooltips="1" connect="1" arrows="1" fold="1" page="1" pageScale="1" pageWidth="850" pageHeight="1100" math="0" shadow="0"><root><mxCell id="Sw0ShNQ0icnkiGBIsxnS-0"/><mxCell id="Sw0ShNQ0icnkiGBIsxnS-1" parent="Sw0ShNQ0icnkiGBIsxnS-0"/><mxCell id="Sw0ShNQ0icnkiGBIsxnS-4" style="edgeStyle=orthogonalEdgeStyle;rounded=0;orthogonalLoop=1;jettySize=auto;html=1;entryX=0.5;entryY=0;entryDx=0;entryDy=0;" parent="Sw0ShNQ0icnkiGBIsxnS-1" source="Sw0ShNQ0icnkiGBIsxnS-2" target="Sw0ShNQ0icnkiGBIsxnS-3" edge="1"><mxGeometry relative="1" as="geometry"/></mxCell><mxCell id="Sw0ShNQ0icnkiGBIsxnS-12" style="edgeStyle=orthogonalEdgeStyle;rounded=0;orthogonalLoop=1;jettySize=auto;html=1;entryX=0;entryY=0.5;entryDx=0;entryDy=0;" parent="Sw0ShNQ0icnkiGBIsxnS-1" source="Sw0ShNQ0icnkiGBIsxnS-2" target="Sw0ShNQ0icnkiGBIsxnS-11" edge="1"><mxGeometry relative="1" as="geometry"/></mxCell><mxCell id="Sw0ShNQ0icnkiGBIsxnS-2" value="Сис админ(по ключу API)" style="rounded=0;whiteSpace=wrap;html=1;" parent="Sw0ShNQ0icnkiGBIsxnS-1" vertex="1"><mxGeometry x="340" y="70" width="120" height="60" as="geometry"/></mxCell><mxCell id="Sw0ShNQ0icnkiGBIsxnS-10" style="edgeStyle=orthogonalEdgeStyle;rounded=0;orthogonalLoop=1;jettySize=auto;html=1;entryX=0.5;entryY=0;entryDx=0;entryDy=0;" parent="Sw0ShNQ0icnkiGBIsxnS-1" source="Sw0ShNQ0icnkiGBIsxnS-3" target="Sw0ShNQ0icnkiGBIsxnS-6" edge="1"><mxGeometry relative="1" as="geometry"/></mxCell><mxCell id="Sw0ShNQ0icnkiGBIsxnS-14" style="edgeStyle=orthogonalEdgeStyle;rounded=0;orthogonalLoop=1;jettySize=auto;html=1;entryX=0;entryY=0.5;entryDx=0;entryDy=0;" parent="Sw0ShNQ0icnkiGBIsxnS-1" source="Sw0ShNQ0icnkiGBIsxnS-3" target="Sw0ShNQ0icnkiGBIsxnS-13" edge="1"><mxGeometry relative="1" as="geometry"/></mxCell><mxCell id="Sw0ShNQ0icnkiGBIsxnS-3" value="Игрок(зарегался сам)" style="rounded=0;whiteSpace=wrap;html=1;" parent="Sw0ShNQ0icnkiGBIsxnS-1" vertex="1"><mxGeometry x="340" y="230" width="120" height="60" as="geometry"/></mxCell><mxCell id="Sw0ShNQ0icnkiGBIsxnS-16" style="edgeStyle=orthogonalEdgeStyle;rounded=0;orthogonalLoop=1;jettySize=auto;html=1;entryX=0.5;entryY=0;entryDx=0;entryDy=0;" parent="Sw0ShNQ0icnkiGBIsxnS-1" source="Sw0ShNQ0icnkiGBIsxnS-5" target="Sw0ShNQ0icnkiGBIsxnS-15" edge="1"><mxGeometry relative="1" as="geometry"/></mxCell><mxCell id="Sw0ShNQ0icnkiGBIsxnS-5" value="Да" style="rounded=0;whiteSpace=wrap;html=1;" parent="Sw0ShNQ0icnkiGBIsxnS-1" vertex="1"><mxGeometry x="190" y="480" width="120" height="60" as="geometry"/></mxCell><mxCell id="Sw0ShNQ0icnkiGBIsxnS-7" style="edgeStyle=orthogonalEdgeStyle;rounded=0;orthogonalLoop=1;jettySize=auto;html=1;entryX=0.5;entryY=0;entryDx=0;entryDy=0;" parent="Sw0ShNQ0icnkiGBIsxnS-1" source="Sw0ShNQ0icnkiGBIsxnS-6" target="Sw0ShNQ0icnkiGBIsxnS-5" edge="1"><mxGeometry relative="1" as="geometry"/></mxCell><mxCell id="Sw0ShNQ0icnkiGBIsxnS-9" style="edgeStyle=orthogonalEdgeStyle;rounded=0;orthogonalLoop=1;jettySize=auto;html=1;entryX=0.5;entryY=0;entryDx=0;entryDy=0;" parent="Sw0ShNQ0icnkiGBIsxnS-1" source="Sw0ShNQ0icnkiGBIsxnS-6" target="Sw0ShNQ0icnkiGBIsxnS-8" edge="1"><mxGeometry relative="1" as="geometry"/></mxCell><mxCell id="Sw0ShNQ0icnkiGBIsxnS-6" value="Главный админ выдал нам роль &quot;крутой&quot;?" style="shape=hexagon;perimeter=hexagonPerimeter2;whiteSpace=wrap;html=1;fixedSize=1;" parent="Sw0ShNQ0icnkiGBIsxnS-1" vertex="1"><mxGeometry x="340" y="350" width="120" height="80" as="geometry"/></mxCell><mxCell id="Sw0ShNQ0icnkiGBIsxnS-17" style="edgeStyle=orthogonalEdgeStyle;rounded=0;orthogonalLoop=1;jettySize=auto;html=1;entryX=1;entryY=0.5;entryDx=0;entryDy=0;" parent="Sw0ShNQ0icnkiGBIsxnS-1" source="Sw0ShNQ0icnkiGBIsxnS-8" target="Sw0ShNQ0icnkiGBIsxnS-13" edge="1"><mxGeometry relative="1" as="geometry"><mxPoint x="600" y="710" as="targetPoint"/><Array as="points"><mxPoint x="560" y="625"/><mxPoint x="870" y="625"/><mxPoint x="870" y="260"/></Array></mxGeometry></mxCell><mxCell id="Sw0ShNQ0icnkiGBIsxnS-8" value="Нет" style="rounded=0;whiteSpace=wrap;html=1;" parent="Sw0ShNQ0icnkiGBIsxnS-1" vertex="1"><mxGeometry x="500" y="480" width="120" height="60" as="geometry"/></mxCell><mxCell id="Sw0ShNQ0icnkiGBIsxnS-11" value="Может:&lt;br&gt;назначать новых адм" style="rounded=0;whiteSpace=wrap;html=1;" parent="Sw0ShNQ0icnkiGBIsxnS-1" vertex="1"><mxGeometry x="550" y="60" width="150" height="80" as="geometry"/></mxCell><mxCell id="Sw0ShNQ0icnkiGBIsxnS-13" value="Может начинать зомбироваться в нашем зомбоящике" style="rounded=0;whiteSpace=wrap;html=1;" parent="Sw0ShNQ0icnkiGBIsxnS-1" vertex="1"><mxGeometry x="540" y="230" width="120" height="60" as="geometry"/></mxCell><mxCell id="Sw0ShNQ0icnkiGBIsxnS-15" value="В любой игре в которую нас инвайтнули мы можем пропускать дни и тд, удалить чубакабру из игры, создавать игры, удалять игры, делать сслки для инвайта в игру" style="rounded=1;whiteSpace=wrap;html=1;" parent="Sw0ShNQ0icnkiGBIsxnS-1" vertex="1"><mxGeometry x="175" y="590" width="150" height="70" as="geometry"/></mxCell></root></mxGraphModel></diagram><diagram id="9U76CZCzjR654-94OvkD" name="Page-7"><mxGraphModel dx="689" dy="481" grid="1" gridSize="10" guides="1" tooltips="1" connect="1" arrows="1" fold="1" page="1" pageScale="1" pageWidth="850" pageHeight="1100" math="0" shadow="0"><root><mxCell id="2ti8mw74wQysYqIGhI0N-0"/><mxCell id="2ti8mw74wQysYqIGhI0N-1" parent="2ti8mw74wQysYqIGhI0N-0"/><mxCell id="sH_AWDCiD-zIrVJbPb2O-0" value="Стадия 1" style="swimlane;fontStyle=0;childLayout=stackLayout;horizontal=1;startSize=30;horizontalStack=0;resizeParent=1;resizeParentMax=0;resizeLast=0;collapsible=1;marginBottom=0;" parent="2ti8mw74wQysYqIGhI0N-1" vertex="1"><mxGeometry x="80" y="100" width="310" height="120" as="geometry"/></mxCell><mxCell id="sH_AWDCiD-zIrVJbPb2O-1" value="Работа с имуществом, персоналом, реагентами" style="text;align=left;verticalAlign=middle;spacingLeft=4;spacingRight=4;overflow=hidden;points=[[0,0.5],[1,0.5]];portConstraint=eastwest;rotatable=0;" parent="sH_AWDCiD-zIrVJbPb2O-0" vertex="1"><mxGeometry y="30" width="310" height="30" as="geometry"/></mxCell><mxCell id="sH_AWDCiD-zIrVJbPb2O-3" value="Закупка рекламы и выбор возможных типов тестов" style="text;align=left;verticalAlign=middle;spacingLeft=4;spacingRight=4;overflow=hidden;points=[[0,0.5],[1,0.5]];portConstraint=eastwest;rotatable=0;" parent="sH_AWDCiD-zIrVJbPb2O-0" vertex="1"><mxGeometry y="60" width="310" height="30" as="geometry"/></mxCell><mxCell id="YpyTNuJ4RJQVzCQCR_r5-1" value="Конфигурация типа оплаты заказов" style="text;strokeColor=none;fillColor=none;align=left;verticalAlign=middle;spacingLeft=4;spacingRight=4;overflow=hidden;points=[[0,0.5],[1,0.5]];portConstraint=eastwest;rotatable=0;" vertex="1" parent="sH_AWDCiD-zIrVJbPb2O-0"><mxGeometry y="90" width="310" height="30" as="geometry"/></mxCell><mxCell id="81soes8RzExL3rzxuXso-1" value="Между 1 и второй стадией" style="swimlane;fontStyle=0;childLayout=stackLayout;horizontal=1;startSize=30;horizontalStack=0;resizeParent=1;resizeParentMax=0;resizeLast=0;collapsible=1;marginBottom=0;" parent="2ti8mw74wQysYqIGhI0N-1" vertex="1"><mxGeometry x="480" y="70" width="260" height="150" as="geometry"/></mxCell><mxCell id="81soes8RzExL3rzxuXso-2" value="Генерируем события" style="text;align=left;verticalAlign=middle;spacingLeft=4;spacingRight=4;overflow=hidden;points=[[0,0.5],[1,0.5]];portConstraint=eastwest;rotatable=0;" parent="81soes8RzExL3rzxuXso-1" vertex="1"><mxGeometry y="30" width="260" height="30" as="geometry"/></mxCell><mxCell id="81soes8RzExL3rzxuXso-4" value="Расчет мощности и репутации" style="text;align=left;verticalAlign=middle;spacingLeft=4;spacingRight=4;overflow=hidden;points=[[0,0.5],[1,0.5]];portConstraint=eastwest;rotatable=0;" parent="81soes8RzExL3rzxuXso-1" vertex="1"><mxGeometry y="60" width="260" height="30" as="geometry"/></mxCell><mxCell id="81soes8RzExL3rzxuXso-3" value="Генерация кол-ва заказов" style="text;align=left;verticalAlign=middle;spacingLeft=4;spacingRight=4;overflow=hidden;points=[[0,0.5],[1,0.5]];portConstraint=eastwest;rotatable=0;" parent="81soes8RzExL3rzxuXso-1" vertex="1"><mxGeometry y="90" width="260" height="30" as="geometry"/></mxCell><mxCell id="YpyTNuJ4RJQVzCQCR_r5-0" value="Выача денег за заказы если требуется" style="text;strokeColor=none;fillColor=none;align=left;verticalAlign=middle;spacingLeft=4;spacingRight=4;overflow=hidden;points=[[0,0.5],[1,0.5]];portConstraint=eastwest;rotatable=0;" vertex="1" parent="81soes8RzExL3rzxuXso-1"><mxGeometry y="120" width="260" height="30" as="geometry"/></mxCell><mxCell id="81soes8RzExL3rzxuXso-6" style="edgeStyle=orthogonalEdgeStyle;rounded=0;orthogonalLoop=1;jettySize=auto;html=1;" parent="2ti8mw74wQysYqIGhI0N-1" source="sH_AWDCiD-zIrVJbPb2O-1" edge="1"><mxGeometry relative="1" as="geometry"><mxPoint x="480" y="145" as="targetPoint"/><Array as="points"><mxPoint x="480" y="145"/></Array></mxGeometry></mxCell><mxCell id="lYhkqIdT5_Hj9KS9HHaq-5" style="edgeStyle=orthogonalEdgeStyle;rounded=0;orthogonalLoop=1;jettySize=auto;html=1;exitX=1;exitY=0.5;exitDx=0;exitDy=0;entryX=1;entryY=0.5;entryDx=0;entryDy=0;" parent="2ti8mw74wQysYqIGhI0N-1" source="81soes8RzExL3rzxuXso-21" target="lYhkqIdT5_Hj9KS9HHaq-0" edge="1"><mxGeometry relative="1" as="geometry"/></mxCell><mxCell id="81soes8RzExL3rzxuXso-21" value="2 стадия" style="swimlane;fontStyle=0;childLayout=stackLayout;horizontal=1;startSize=30;horizontalStack=0;resizeParent=1;resizeParentMax=0;resizeLast=0;collapsible=1;marginBottom=0;" parent="2ti8mw74wQysYqIGhI0N-1" vertex="1"><mxGeometry x="800" y="115" width="310" height="60" as="geometry"/></mxCell><mxCell id="sDgsY_wle_KYG1x9iNpE-1" value="Работа с тестами и мощностями" style="text;align=left;verticalAlign=middle;spacingLeft=4;spacingRight=4;overflow=hidden;points=[[0,0.5],[1,0.5]];portConstraint=eastwest;rotatable=0;" parent="81soes8RzExL3rzxuXso-21" vertex="1"><mxGeometry y="30" width="310" height="30" as="geometry"/></mxCell><mxCell id="UgaWqF8X5lZKmyoQ4Q_b-0" style="edgeStyle=orthogonalEdgeStyle;rounded=0;orthogonalLoop=1;jettySize=auto;html=1;entryX=0;entryY=0.5;entryDx=0;entryDy=0;" parent="2ti8mw74wQysYqIGhI0N-1" edge="1"><mxGeometry relative="1" as="geometry"><mxPoint x="800" y="142" as="targetPoint"/><mxPoint x="740" y="143" as="sourcePoint"/><Array as="points"><mxPoint x="740" y="142"/></Array></mxGeometry></mxCell><mxCell id="0IYhsMEEfeDFxOYwGN4U-0" style="edgeStyle=orthogonalEdgeStyle;rounded=0;orthogonalLoop=1;jettySize=auto;html=1;exitX=0;exitY=0.5;exitDx=0;exitDy=0;entryX=-0.002;entryY=-0.047;entryDx=0;entryDy=0;entryPerimeter=0;" parent="2ti8mw74wQysYqIGhI0N-1" source="lYhkqIdT5_Hj9KS9HHaq-0" target="sH_AWDCiD-zIrVJbPb2O-3" edge="1"><mxGeometry relative="1" as="geometry"><mxPoint x="-800" y="200" as="targetPoint"/><Array as="points"><mxPoint x="40" y="369"/><mxPoint x="40" y="159"/></Array></mxGeometry></mxCell><mxCell id="lYhkqIdT5_Hj9KS9HHaq-0" value="Между второй и первой стадией" style="swimlane;fontStyle=0;childLayout=stackLayout;horizontal=1;startSize=30;horizontalStack=0;resizeParent=1;resizeParentMax=0;resizeLast=0;collapsible=1;marginBottom=0;" parent="2ti8mw74wQysYqIGhI0N-1" vertex="1"><mxGeometry x="449" y="279" width="321" height="180" as="geometry"/></mxCell><mxCell id="DRKGfV772YUn4EWbHC1n-0" value="+1 к дню" style="text;align=left;verticalAlign=middle;spacingLeft=4;spacingRight=4;overflow=hidden;points=[[0,0.5],[1,0.5]];portConstraint=eastwest;rotatable=0;" parent="lYhkqIdT5_Hj9KS9HHaq-0" vertex="1"><mxGeometry y="30" width="321" height="30" as="geometry"/></mxCell><mxCell id="DRKGfV772YUn4EWbHC1n-3" value="Генерация репутации по заказам" style="text;align=left;verticalAlign=middle;spacingLeft=4;spacingRight=4;overflow=hidden;points=[[0,0.5],[1,0.5]];portConstraint=eastwest;rotatable=0;" parent="lYhkqIdT5_Hj9KS9HHaq-0" vertex="1"><mxGeometry y="60" width="321" height="30" as="geometry"/></mxCell><mxCell id="cbQxlZy1Neoblf6DgF4m-0" value="Сброс показателей" style="text;align=left;verticalAlign=middle;spacingLeft=4;spacingRight=4;overflow=hidden;points=[[0,0.5],[1,0.5]];portConstraint=eastwest;rotatable=0;" parent="lYhkqIdT5_Hj9KS9HHaq-0" vertex="1"><mxGeometry y="90" width="321" height="30" as="geometry"/></mxCell><mxCell id="lYhkqIdT5_Hj9KS9HHaq-2" value="Cписаниеежемесячных расходов" style="text;align=left;verticalAlign=middle;spacingLeft=4;spacingRight=4;overflow=hidden;points=[[0,0.5],[1,0.5]];portConstraint=eastwest;rotatable=0;" parent="lYhkqIdT5_Hj9KS9HHaq-0" vertex="1"><mxGeometry y="120" width="321" height="30" as="geometry"/></mxCell><mxCell id="DRKGfV772YUn4EWbHC1n-2" value="Проверка залогов" style="text;align=left;verticalAlign=middle;spacingLeft=4;spacingRight=4;overflow=hidden;points=[[0,0.5],[1,0.5]];portConstraint=eastwest;rotatable=0;" parent="lYhkqIdT5_Hj9KS9HHaq-0" vertex="1"><mxGeometry y="150" width="321" height="30" as="geometry"/></mxCell></root></mxGraphModel></diagram><diagram id="2gvWygi22lvRRJy_oAZ6" name="Page-8"><mxGraphModel dx="689" dy="481" grid="1" gridSize="10" guides="1" tooltips="1" connect="1" arrows="1" fold="1" page="1" pageScale="1" pageWidth="850" pageHeight="1100" math="0" shadow="0"><root><mxCell id="whOxH6I_LWSotSnblIGU-0"/><mxCell id="whOxH6I_LWSotSnblIGU-1" parent="whOxH6I_LWSotSnblIGU-0"/><mxCell id="whOxH6I_LWSotSnblIGU-2" value="Чел 1 хочет выполнить тест" style="rounded=0;whiteSpace=wrap;html=1;" parent="whOxH6I_LWSotSnblIGU-1" vertex="1"><mxGeometry x="150" y="160" width="120" height="60" as="geometry"/></mxCell><mxCell id="whOxH6I_LWSotSnblIGU-4" style="edgeStyle=orthogonalEdgeStyle;rounded=0;orthogonalLoop=1;jettySize=auto;html=1;entryX=0.5;entryY=1;entryDx=0;entryDy=0;" parent="whOxH6I_LWSotSnblIGU-1" source="whOxH6I_LWSotSnblIGU-3" target="whOxH6I_LWSotSnblIGU-2" edge="1"><mxGeometry relative="1" as="geometry"/></mxCell><mxCell id="whOxH6I_LWSotSnblIGU-3" value="Чел 2 может выполнить тест" style="rounded=0;whiteSpace=wrap;html=1;" parent="whOxH6I_LWSotSnblIGU-1" vertex="1"><mxGeometry x="470" y="170" width="120" height="60" as="geometry"/></mxCell><mxCell id="whOxH6I_LWSotSnblIGU-5" value="3 мощности" style="rounded=0;whiteSpace=wrap;html=1;" parent="whOxH6I_LWSotSnblIGU-1" vertex="1"><mxGeometry x="480" y="250" width="120" height="60" as="geometry"/></mxCell><mxCell id="whOxH6I_LWSotSnblIGU-6" value="3 мощности" style="rounded=0;whiteSpace=wrap;html=1;" parent="whOxH6I_LWSotSnblIGU-1" vertex="1"><mxGeometry x="150" y="250" width="120" height="60" as="geometry"/></mxCell></root></mxGraphModel></diagram></mxfile>